<svg xmlns="http://www.w3.org/2000/svg" width="543.866" height="633.644" viewBox="0 0 543.866 633.644"><g id="G10" transform="translate(-261.682 -203.35)"><path id="P26" d="M-2141.821-4254.357l-4.035,0c-2.3-.007-5.542-1.868-8.455-4.855-3.9-4-6.567-9.259-6.491-12.8.2-9.172-.186-606.607-.2-612.3a4.031,4.031,0,0,1,1.081-2.834,2.633,2.633,0,0,1,1.975-.85c1.787,0,4.166,1.466,6.526,4.021,8.334,9.031,369.339,431.6,524.163,612.855l1.3,1.52,4.251,4.977.933,1.093.859,1.006.48.562c1.814,1.978,2.628,3.772,2.175,4.8-.607,1.381-3.115,2.593-5.366,2.593-.648-.007-5.782-.011-16.157-.011-45.794,0-177.523.067-293.745.127l-17.911.009-6.242,0Zm52.435-369.5c-4.048,0-7.935.147-11.553.437s-7.057.728-10.247,1.308v313.484H-1944.2a139.552,139.552,0,0,0,1.309-19.62c0-2.874-.073-6.1-.218-9.592a73.469,73.469,0,0,0-1.091-10.029h-122.951v-274.243c-3.476-.58-7.144-1.02-10.9-1.308S-2085.626-4623.861-2089.386-4623.861Z" transform="translate(2422.683 5091.35)" fill="#fff"/><g id="G13"><path id="P23" d="M477.313,431.992l8.975,10.408,9.468-93.111s10.523-1.123,34.632,0,40.264,2.6,61.8,4.494,14.451,1.287,24.357,3.081a363.753,363.753,0,0,1,36.287,8.433c14.415,4.135,21.375,8.108,21.375,8.108l15.41,7.946a145.573,145.573,0,0,1,16.887,13.161,67.9,67.9,0,0,1,10.785,13.146,90.3,90.3,0,0,1,7.746,14.682,85.333,85.333,0,0,1,4.314,15.737,83.149,83.149,0,0,1,1.569,15.929,150.954,150.954,0,0,1-1.569,19.1,107.2,107.2,0,0,1-4.51,18.232,94.136,94.136,0,0,1-7.942,16.216,72.832,72.832,0,0,1-9.8,13.53,116.484,116.484,0,0,1-14.51,12.666,73.722,73.722,0,0,1-12.942,7.389,61.9,61.9,0,0,1-13.628,3.742l-4.51.384-.784,9.788,14.51,4.606s14.9,6.525,15.687,7.389,4,1.8,10,6.717,14.02,12.954,14.02,12.954,5.564,6.957,9.02,12.379a49.585,49.585,0,0,1,4.8,9.308,123.05,123.05,0,0,1,4.608,11.707,60.042,60.042,0,0,1,2.255,9.884,127.033,127.033,0,0,1,1.274,18.232,185.049,185.049,0,0,1-1.569,20.151,128.12,128.12,0,0,1-4.314,19.767,137.53,137.53,0,0,1-7.647,18.807l-4.412,7.773,12.06,14.2a122.093,122.093,0,0,0,8.922-14.2c3.652-7.077,3.064-5.086,5.687-14.106a214.029,214.029,0,0,0,4.8-21.974,223.6,223.6,0,0,0,1.667-22.454,87.689,87.689,0,0,0-1.569-17.177,84.686,84.686,0,0,0-4.216-16.216,190.411,190.411,0,0,0-8.824-19.479A113.691,113.691,0,0,0,726.313,584.7a103.789,103.789,0,0,0-14.707-15.161s-7.77-5.949-12.942-9.4a43.906,43.906,0,0,0-7.745-4.414,121.5,121.5,0,0,0,17.55-10.459c7.868-5.853,13.922-12.667,13.922-12.954s5.319-6.573,9.314-13.242a103.891,103.891,0,0,0,6.667-13.434,87.157,87.157,0,0,0,5.1-16.5c1.887-9.332,2.182-9.979,2.451-20.822s.662-11.611-1.373-22.55a102.987,102.987,0,0,0-6.765-21.207A136.534,136.534,0,0,0,730.136,409a107.324,107.324,0,0,0-9.314-13.146A137.279,137.279,0,0,0,708.371,382.9a94.485,94.485,0,0,0-12.942-9.5l-15.687-8.543a179.148,179.148,0,0,0-24.805-9.4c-14.192-4.222-31.962-7.485-31.962-7.485s-14.486-2.4-30.3-4.126-32.943-2.783-32.943-2.783-12.329-1.3-27.06-1.728-31.276.1-31.865,0-14.217.576-14.217.576Z" fill="#fff" stroke="#fff" stroke-width="1"/><path id="P24" d="M551.206,512.366c0-.444,10.156-106.944,10.868-106.944s11.425-.178,21.38.444,18.441,2.045,18.441,2.045a86.975,86.975,0,0,1,16.035,4.445,77.372,77.372,0,0,1,14.075,7.734,69.448,69.448,0,0,1,9.354,9.6,41.5,41.5,0,0,1,5.523,10.046,53.585,53.585,0,0,1,2.672,13.246,104.606,104.606,0,0,1-.534,16.535s-2,11.734-5.078,19.291-7.216,10.934-7.216,10.934a56.792,56.792,0,0,1-11.937,9.69,54.92,54.92,0,0,1-14.253,5.334,123.518,123.518,0,0,1-17.639,1.778c-7.851.031-19.777-1.334-19.777-1.334Z" transform="translate(7 7.264)" fill="none" stroke="#fff" stroke-linejoin="round" stroke-width="10"/><path id="P25" d="M602.586,586.423l10.2,12.255s8.873.907,15.785,4.216a41.35,41.35,0,0,1,11.863,9.02,58.579,58.579,0,0,1,7.844,12.452,57.42,57.42,0,0,1,3.824,14.118v6.079l8.705,9.453s1.614-4.257,1.1-12.1-3.334-18.922-3.334-18.922a56.813,56.813,0,0,0-8.432-15,64.978,64.978,0,0,0-13.53-11.765,115.283,115.283,0,0,0-14.9-7.452A86.907,86.907,0,0,0,607,584.561l-6.667-1.079Z" transform="translate(4 -3)" fill="#fff" stroke="#fff" stroke-width="1"/></g></g></svg>