<svg xmlns="http://www.w3.org/2000/svg" width="1894.049" height="634.643" viewBox="0 0 1894.049 633.643"><g id="logo" transform="translate(-122.683 -203.351)"><path id="P16" d="M123-4536.574a178.933,178.933,0,0,1-54.844-8.558,178.271,178.271,0,0,1-41.864-19.788l45.246-22.068A139.083,139.083,0,0,0,127-4575.574c77.2,0,140-62.8,140-140s-62.8-140-140-140a140.309,140.309,0,0,0-37.1,4.97l-31.83-31.83A178.153,178.153,0,0,1,123-4894.575a180.3,180.3,0,0,1,36.075,3.637,178.046,178.046,0,0,1,33.6,10.43,179.062,179.062,0,0,1,30.407,16.5,180.3,180.3,0,0,1,26.491,21.858,180.466,180.466,0,0,1,21.858,26.491,179.076,179.076,0,0,1,16.5,30.406,178.081,178.081,0,0,1,10.43,33.6A180.4,180.4,0,0,1,302-4715.575a180.385,180.385,0,0,1-3.637,36.075,178.146,178.146,0,0,1-10.43,33.6,179.011,179.011,0,0,1-16.5,30.4A180.228,180.228,0,0,1,249.573-4589a180.339,180.339,0,0,1-26.491,21.858,178.97,178.97,0,0,1-30.407,16.5,178.082,178.082,0,0,1-33.6,10.43A180.218,180.218,0,0,1,123-4536.574Z" transform="translate(1617 5323.573)" fill="#fff"/><path id="P11" d="M31.392-313.92q13.952-2.18,32.264-3.488t45.78-1.308a250.853,250.853,0,0,1,45.344,3.924q21.364,3.924,37.278,13.3a69.109,69.109,0,0,1,25.07,25.07q9.156,15.7,9.156,39.24a78.937,78.937,0,0,1-4.142,25.942,71.8,71.8,0,0,1-11.118,20.928,68.621,68.621,0,0,1-15.7,14.824,42.6,42.6,0,0,1-17.876,7.194,95.347,95.347,0,0,1,22.236,6.1,74.938,74.938,0,0,1,22.672,14.17,74.578,74.578,0,0,1,17.44,24.2q6.976,14.824,6.976,35.752,0,28.34-10.682,46.434A78.59,78.59,0,0,1,207.318-13.08Q189.224-2.616,165.462,1.308A306.2,306.2,0,0,1,115.54,5.232q-20.056,0-39.676-1.09T31.392,0ZM94.612-47.96q6.1.872,14.17,1.308t14.606.436a112.037,112.037,0,0,0,19.184-1.744,56.857,56.857,0,0,0,18.748-6.758A41.252,41.252,0,0,0,175.708-68.67q5.668-8.938,5.668-23.326,0-13.516-4.36-22.454a36.175,36.175,0,0,0-12.426-14.388,51.6,51.6,0,0,0-19.184-7.63,128.375,128.375,0,0,0-24.634-2.18H94.612ZM113.8-186.608a98.946,98.946,0,0,0,20.274-1.962,42.586,42.586,0,0,0,16.35-6.976,33.574,33.574,0,0,0,10.9-13.516q3.924-8.5,3.924-21.582,0-12.644-4.578-20.71A35.293,35.293,0,0,0,148.894-264a43.271,43.271,0,0,0-16.132-6.1,104.786,104.786,0,0,0-17.658-1.526,134.563,134.563,0,0,0-20.492,1.308v83.712ZM486.14-313.484a198.608,198.608,0,0,1,31.828-2.616,206.769,206.769,0,0,1,32.264,2.616V0A204.166,204.166,0,0,1,518.4,2.616,201.25,201.25,0,0,1,486.14,0Z" transform="translate(1461.5 759.5)" fill="none" stroke="#fff" stroke-width="10"/><path id="P5" d="M706.5,5348.5c-2.037-6.866,66.262-6.477,70,0s62,138,62,138,58.841-132.729,61-138,65.759-6.984,66,0-97,199-97,199v113h-64v-113S708.537,5355.366,706.5,5348.5Z" transform="translate(2 -4900)" fill="none" stroke="#fff" stroke-linejoin="round" stroke-width="10"/><path id="R" d="M33.572-313.484q19.184-2.18,35.97-3.706t37.278-1.526a256.921,256.921,0,0,1,47.306,4.36A127.765,127.765,0,0,1,196.2-298.878a87.025,87.025,0,0,1,30.3,30.084q11.554,18.966,11.554,48.178,0,17.44-4.36,30.738a93.792,93.792,0,0,1-11.118,23.326,95.93,95.93,0,0,1-14.606,17.222,103.725,103.725,0,0,1-14.824,11.554l-7.412,4.8L262.036-.436q-8.72.872-18.312,1.744T224.1,2.18A203.953,203.953,0,0,1,191.4-.436L109.436-146.06l10.464-5.232q6.1-3.052,14.824-7.848a91.509,91.509,0,0,0,16.786-11.99,65.761,65.761,0,0,0,13.734-17.44q5.668-10.246,5.668-24.2,0-27.468-15.7-40.33T114.668-265.96a106.538,106.538,0,0,0-17.44,1.308V0q-7.848.872-15.7,1.526t-15.26.654q-7.412,0-15.7-.436T33.572,0Z" transform="translate(972.5 759.5)" fill="none" stroke="#fff" stroke-width="10"/><path id="P6" d="M1251.5,5640.5v19h194v-19Z" transform="translate(2 -4900)" fill="none" stroke="#fff" stroke-linecap="round" stroke-linejoin="round" stroke-width="10"/><path id="P7" d="M1251.5,5640.5v19h149.828v-19Z" transform="translate(24.086 -5044)" fill="none" stroke="#fff" stroke-linecap="round" stroke-linejoin="round" stroke-width="10"/><path id="P8" d="M1251.5,5640.5v19h194v-19Z" transform="translate(2 -5186)" fill="none" stroke="#fff" stroke-linecap="round" stroke-linejoin="round" stroke-width="10"/><path id="P42" d="M19.271-4260.932l-4.035,0c-2.3-.007-5.543-1.868-8.456-4.857-3.9-4-6.564-9.258-6.488-12.8.2-9.06-.187-606.6-.2-612.3a4.025,4.025,0,0,1,1.081-2.833,2.616,2.616,0,0,1,1.973-.85c1.79,0,4.169,1.466,6.528,4.021,5.807,6.292,185.092,216,334.471,390.814l-55.17,156.315H352.2l32.878-108.41c50.216,58.773,100.819,118.008,150.4,176.058l3.857,4.517.893,1.045.774.907.235.274.154.18.066.078.2.232c1.814,1.978,2.628,3.773,2.175,4.8-.608,1.381-3.116,2.593-5.366,2.593-.62-.007-5.6-.01-16.157-.01-47.73,0-189.118.072-317.9.139Zm92.435-400.5c-4.05,0-7.938.147-11.554.436s-7.069.729-10.246,1.309v313.484H256.894a139.564,139.564,0,0,0,1.307-19.621c0-2.879-.073-6.106-.217-9.591a73.323,73.323,0,0,0-1.09-10.028H133.942v-274.244c-3.473-.579-7.141-1.02-10.9-1.309S115.467-4661.437,111.706-4661.437Z" transform="translate(122.591 5097.925)" fill="#fff"/><path id="P4" d="M402.5,5659.5l108-306h84l104,306h-75l-73-244-74,244Z" transform="translate(2 -4900)" fill="none" stroke="#fff" stroke-linecap="round" stroke-linejoin="round" stroke-width="10"/></g></svg>